<svg xmlns="http://www.w3.org/2000/svg" viewBox="0 0 960 260" fill="none">
  <g stroke="#7F9BB2" stroke-width="1.3" stroke-linecap="round" stroke-linejoin="round" opacity=".48">
    <path d="M84 58h240v154H84zM116 92h154M116 120h126M116 148h160M116 176h88"/>
    <circle cx="278" cy="176" r="32"/>
    <circle cx="278" cy="176" r="19"/>
    <path d="M392 212V96h260v116M414 96h216M434 78l90-42 90 42M434 78h180"/>
    <path d="M440 120v92M500 120v92M560 120v92M620 120v92"/>
    <path d="M430 212h232M446 138h34M506 138h34M566 138h34M446 166h34M506 166h34M566 166h34"/>
    <path d="M696 128h116v84H696zM720 154h68M720 180h68"/>
    <path d="M848 162h62v50h-62zM862 180h34M862 198h34M880 162v-28M864 134h32"/>
    <path d="M48 224c74-8 134 6 206 0 93-8 166-15 254-4 98 13 193 10 394-8"/>
  </g>
  <g stroke="#A9BDCB" stroke-width=".95" stroke-linecap="round" opacity=".32">
    <path d="M102 70h204M410 108h224M698 140h112"/>
    <path d="M656 212c30-24 70-36 118-34 48 2 90 16 136 28"/>
  </g>
</svg>
