<svg xmlns="http://www.w3.org/2000/svg" viewBox="0 0 960 260" fill="none">
  <g stroke="#7F9BB2" stroke-width="1.3" stroke-linecap="round" stroke-linejoin="round" opacity=".48">
    <path d="M86 96 250 34l164 62M100 96h300M116 110v106M178 110v106M240 110v106M302 110v106M364 110v106M92 216h330M104 230h296"/>
    <path d="M520 138a84 84 0 1 0 168 0 84 84 0 1 0-168 0M554 138a50 50 0 1 0 100 0 50 50 0 1 0-100 0M604 138l82-54M604 138l94 28"/>
    <path stroke-dasharray="8 11" d="M492 72h272M492 204h272M480 138h308"/>
    <path d="M792 86h92v130h-92zM812 114h52M812 142h52M812 170h52M812 198h52M820 64h36v22M838 48v16"/>
    <path d="M504 226c58-8 110 4 166 0 68-5 128-18 218-5"/>
  </g>
  <g stroke="#A9BDCB" stroke-width=".95" stroke-linecap="round" opacity=".32">
    <path d="M126 126h246M126 154h246M126 182h246"/>
    <path d="M528 58h220"/>
  </g>
</svg>
